<svg id="Layer_1" data-name="Layer 1" xmlns="http://www.w3.org/2000/svg" viewBox="0 0 260.08 289.34"><defs><style>.cls-1{fill:#ee2524;}</style></defs><title>redflame</title><path class="cls-1" d="M161,33a38.65,38.65,0,0,0,5,16.16,85.85,85.85,0,0,0,5.22,8.39,109.79,109.79,0,1,1-62.33-6,78.76,78.76,0,0,1,1.43-20.8C48,40.27,0,94.28,0,159.3c0,71.7,58.34,130,130,130a130.19,130.19,0,0,0,130-130C260.08,98.27,217.82,46.93,161,33Z"/><path class="cls-1" d="M195.18,154.87a37.79,37.79,0,0,0-3.83-5.18c-.91-1-1.47-1.06-1.66.48a29.6,29.6,0,0,1-2.87,9.94,14.27,14.27,0,0,1-13.8,7.28c-7.48-.87-10.2-6.37-10.48-11.34s.4-8.82,4.37-13c2.67-2.81,6.81-7.74,8.68-12,5.38-12.17,4.69-24.29.15-36.84-3-8.29-8.25-15.22-13.73-22-6-7.4-12.14-14.68-16.67-23.13-3.26-6.06-5.47-12.48-5-19.42a69.35,69.35,0,0,1,8.38-27.68c1.49-2.66,1.46-2.42-.62-1a32.84,32.84,0,0,0-8.6,9.07c-9.15,13.69-11.23,29.36-9.77,45.32.88,9.64,3.31,19.15,5.35,28.65,2.33,10.82,4.75,21.61,3.34,32.74a35.33,35.33,0,0,1-3,10.89c-3.19,6.54-10.37,9.72-16.55,7.91-5.14-1.5-8.1-5.31-9.7-10.14-1.77-5.34-3.14-10.8-4.74-16.19-1.74-5.84-3.53-11.67-7.19-16.67-2-2.75-5.34-5.09-9.25-4.21,8.1,11.06,6.19,23.9.24,34.72C85,129,80.45,134.1,76.7,139.73,70.81,148.6,66.51,154.5,61,163.62c-6.27,10.44-7.41,21.92-4.55,33.74,4.07,16.85,14.83,28.28,29.76,36.2,12.25,6.5,25.51,9.31,39.22,10.29,5.08.37,6.23-1.26,4.16-2.33-16.37-8.36-20.25-23-16.4-40.74,2.33-10.71,6.66-17.6,12.45-25.84-.1,4.05.11,6.8.11,11.29,0,18.71,13.37,37.72,37.11,37.72,23.9,0,36.88-17.45,38.1-37.83C201.75,173.47,201.26,165.26,195.18,154.87Z"/></svg>